15_ID_stride4.mot
nRows=8
nColumns=38

name 15_ID_stride4.mot
datacolumns 38
datarows 8
range 2.0300000000 2.0650000000
endheader
time	pelvis_tilt_moment	pelvis_list_moment	pelvis_rotation_moment	pelvis_tx_force	pelvis_ty_force	pelvis_tz_force	hip_flexion_r_moment	hip_adduction_r_moment	hip_rotation_r_moment	knee_angle_r_moment	ankle_angle_r_moment	subtalar_angle_r_moment	mtp_angle_r_moment	hip_flexion_l_moment	hip_adduction_l_moment	hip_rotation_l_moment	knee_angle_l_moment	ankle_angle_l_moment	subtalar_angle_l_moment	mtp_angle_l_moment	lumbar_extension_moment	lumbar_bending_moment	lumbar_rotation_moment	arm_flex_r_moment	arm_add_r_moment	arm_rot_r_moment	elbow_flex_r_moment	pro_sup_r_moment	wrist_flex_r_moment	wrist_dev_r_moment	arm_flex_l_moment	arm_add_l_moment	arm_rot_l_moment	elbow_flex_l_moment	pro_sup_l_moment	wrist_flex_l_moment	wrist_dev_l_moment
        2.0300000000	      -13.0092810365	       40.2694339219	       46.2497916703	        9.8989228971	      349.4093885197	      150.6553493730	       51.4440736330	       -2.4591905531	        0.1784864052	       15.6929343381	        3.7846011201	       -0.4529643130	        0.1800256678	      -21.2804009725	      -16.6986812845	      -16.8879469176	        0.1781721360	        3.8277639804	       -6.7298554266	        0.3326549048	       20.4871984409	       14.8681682131	        7.3602093063	       -5.7675612565	        1.3795610994	        1.7311061958	        0.0798007369	        0.0406658665	        0.1778650794	        0.0837801539	       -7.5634634169	       -0.8362176416	        0.0158769389	        0.1203255202	       -0.0070831297	        0.0026023152	        0.0408620291	
        2.0350000000	      -41.3019367140	       85.8669094785	       63.0640941471	       21.9551773898	      240.5641220892	       79.9692727872	       56.9917961364	       -2.3490101934	        0.2215443208	       16.5717513476	        3.9098414937	       -0.4361682232	        0.1886539694	       -9.3005566157	      -57.0240235056	       -8.9000868543	       25.3512635358	       -2.5351997308	       -1.4209511002	        0.3668876271	       29.3185580330	       20.3460183659	       10.1335107368	       -5.6836115041	        0.9797847847	        1.7139527348	        0.6376183155	        0.0340637509	        0.1991828298	        0.0381958916	       -8.3375719641	       -0.1383958923	        0.2376601342	        0.5021855865	       -0.0143301574	        0.0202531177	        0.0078737814	
        2.0400000000	      -66.6155479106	      107.7891510147	       75.9306266675	       25.2066952199	       87.5808590546	       -1.3202736029	       64.2942814449	       -1.2233430948	       -0.0846688319	       17.6789822663	        4.0766851875	       -0.4125058107	        0.1997927599	      -17.1684410482	      -93.9219818191	       -0.6786132706	       44.9582546072	      -15.1090176361	        4.2960715827	        0.3671567980	       33.4850656638	       24.8035904305	       10.2693083124	       -5.2356760857	        0.4408370572	        1.4811008175	        1.1869626306	        0.0201373391	        0.1905991603	       -0.0145523591	       -8.1143922849	        0.6702303558	        0.5438549217	        0.9253203682	       -0.0174318366	        0.0495401403	       -0.0282659260	
        2.0450000000	      -79.5708086234	      102.7320392949	       82.8832172645	       23.7626026632	      -84.4288991320	      -60.6989799310	       71.2604392052	        1.0438459509	       -0.8013812815	       18.8192038927	        4.2383521126	       -0.3787481408	        0.2117074487	      -46.8048212176	     -117.6934275363	        3.3139020925	       52.2368862099	      -35.6570734668	        9.0334526498	        0.3509195720	       34.5902279393	       27.4713466508	        9.5839907791	       -4.4659062792	       -0.1018989522	        1.0532151505	        1.7112328765	        0.0002785858	        0.1658945158	       -0.0708792753	       -7.3256641655	        1.4565749190	        0.8806390308	        1.3849320521	       -0.0190549900	        0.0868596400	       -0.0669273816	
        2.0500000000	      -80.2581307936	       67.2096009363	       84.3907852060	       17.6121384185	     -226.4401028992	      -76.7810381448	       74.7436981053	        3.6508293461	       -1.6761865773	       19.6868688487	        4.3255282925	       -0.3343145413	        0.2217187110	      -96.5410739251	     -123.4762345835	        2.7770487522	       52.6508709404	      -61.5854695376	       10.4914033993	        0.3039010098	       35.0943522461	       28.2694189167	        7.2715591671	       -3.7059420315	       -0.4568441991	        0.6519499929	        2.2347427808	       -0.0210907729	        0.1363083822	       -0.1283794155	       -6.1404076648	        2.0597743269	        1.1710396616	        1.9003309467	       -0.0209334204	        0.1250780587	       -0.1096838932	
        2.0550000000	      -61.8202482182	       16.4882541253	       81.9127030620	       13.0403952727	     -304.6416947776	      -67.2814154840	       75.4266397321	        6.2939432101	       -2.5740541735	       20.0963427145	        4.3468286386	       -0.2827287359	        0.2291461996	     -147.0493072214	     -114.7626511115	       -7.6750467863	       50.0231233203	      -89.0768521174	        9.4352866717	        0.2408670489	       36.3455446762	       28.3467887233	        4.2568892728	       -3.0431752302	       -0.5902852359	        0.3228026280	        2.8247901244	       -0.0436842941	        0.1113378923	       -0.1909609786	       -4.8332872993	        2.4783397074	        1.4084765536	        2.5351691782	       -0.0251756313	        0.1642321511	       -0.1618859993	
        2.0600000000	      -28.9474391088	      -27.1189106377	       75.5632246300	       12.5050347461	     -318.3359189048	      -43.6785017227	       72.8059067565	        8.6886358234	       -3.3773613940	       20.1050516772	        4.2921580931	       -0.2300216388	        0.2344182151	     -182.9881820545	      -92.3270823857	      -24.3308840066	       54.1742519175	     -113.9689494639	        5.6579012799	        0.1716440505	       40.5338420240	       28.6531870993	        0.7215076528	       -2.4827951773	       -0.5601242278	        0.0587382881	        3.5789654803	       -0.0691597568	        0.0929951812	       -0.2668751283	       -3.4681394863	        2.7965125133	        1.6254459358	        3.3783551903	       -0.0328812341	        0.2083402704	       -0.2310647928	
        2.0650000000	        6.6508663449	      -44.9811070826	       66.0640241110	       16.9539857632	     -264.9889862911	      -44.2806308615	       69.3538954489	       10.5589471944	       -4.0007395081	       19.6861508667	        4.2040703668	       -0.1818155656	        0.2387220872	     -188.3995680995	      -68.2259540585	      -39.4223726839	       69.5383810629	     -132.5029207132	        2.9754706019	        0.1080767675	       48.0714801284	       30.9357483156	       -3.2947037988	       -1.9616184350	       -0.5006937914	       -0.2176593907	        4.5606915765	       -0.1004451090	        0.0774140632	       -0.3638699151	       -2.0059643130	        3.2137819352	        1.9045001037	        4.4819783697	       -0.0431778939	        0.2646916509	       -0.3215083826	
